<svg width="45" height="44" viewBox="0 0 45 44" fill="none" xmlns="http://www.w3.org/2000/svg">
<path d="M35.625 7.33335H33.75V3.66669H30V7.33335H15V3.66669H11.25V7.33335H9.375C7.29375 7.33335 5.64375 8.98335 5.64375 11L5.625 36.6667C5.625 37.6391 6.02009 38.5718 6.72335 39.2594C7.42661 39.947 8.38044 40.3334 9.375 40.3334H35.625C37.6875 40.3334 39.375 38.6834 39.375 36.6667V11C39.375 8.98335 37.6875 7.33335 35.625 7.33335ZM35.625 36.6667H9.375V18.3334H35.625V36.6667ZM16.875 25.6667H13.125V22H16.875V25.6667ZM24.375 25.6667H20.625V22H24.375V25.6667ZM31.875 25.6667H28.125V22H31.875V25.6667ZM16.875 33H13.125V29.3334H16.875V33ZM24.375 33H20.625V29.3334H24.375V33ZM31.875 33H28.125V29.3334H31.875V33Z" fill="black"/>
</svg>
