<svg width="30" height="37" viewBox="0 0 30 37" fill="none" xmlns="http://www.w3.org/2000/svg">
<path fill-rule="evenodd" clip-rule="evenodd" d="M8.40767 1.07433C9.09514 0.386652 10.0276 0.00020767 11 0H18.3333C19.3058 0 20.2384 0.386308 20.9261 1.07394C21.6137 1.76157 22 2.69421 22 3.66667V7.33333H27.5C27.9862 7.33333 28.4525 7.52649 28.7964 7.8703C29.1402 8.21412 29.3333 8.68044 29.3333 9.16667C29.3333 9.6529 29.1402 10.1192 28.7964 10.463C28.4525 10.8068 27.9862 11 27.5 11V33C27.5 33.9725 27.1137 34.9051 26.4261 35.5927C25.7384 36.2804 24.8058 36.6667 23.8333 36.6667H5.5C4.52754 36.6667 3.59491 36.2804 2.90728 35.5927C2.21964 34.9051 1.83333 33.9725 1.83333 33V11C1.3471 11 0.880788 10.8068 0.536971 10.463C0.193155 10.1192 0 9.6529 0 9.16667C0 8.68044 0.193155 8.21412 0.536971 7.8703C0.880788 7.52649 1.3471 7.33333 1.83333 7.33333H7.33333V3.66667C7.33354 2.69429 7.71999 1.76181 8.40767 1.07433ZM11 7.33333H18.3333V3.66667H11V7.33333ZM12.8333 14.6667C12.8333 14.1804 12.6402 13.7141 12.2964 13.3703C11.9525 13.0265 11.4862 12.8333 11 12.8333C10.5138 12.8333 10.0475 13.0265 9.70364 13.3703C9.35982 13.7141 9.16667 14.1804 9.16667 14.6667V29.3333C9.16667 29.8196 9.35982 30.2859 9.70364 30.6297C10.0475 30.9735 10.5138 31.1667 11 31.1667C11.4862 31.1667 11.9525 30.9735 12.2964 30.6297C12.6402 30.2859 12.8333 29.8196 12.8333 29.3333V14.6667ZM20.1667 14.6667C20.1667 14.1804 19.9735 13.7141 19.6297 13.3703C19.2859 13.0265 18.8196 12.8333 18.3333 12.8333C17.8471 12.8333 17.3808 13.0265 17.037 13.3703C16.6932 13.7141 16.5 14.1804 16.5 14.6667V29.3333C16.5 29.8196 16.6932 30.2859 17.037 30.6297C17.3808 30.9735 17.8471 31.1667 18.3333 31.1667C18.8196 31.1667 19.2859 30.9735 19.6297 30.6297C19.9735 30.2859 20.1667 29.8196 20.1667 29.3333V14.6667Z" fill="black"/>
</svg>
