<svg width="40" height="40" viewBox="0 0 40 40" fill="none" xmlns="http://www.w3.org/2000/svg">
<path d="M11.6666 28.355L19.0216 28.33L35.075 12.43C35.705 11.8 36.0516 10.9633 36.0516 10.0733C36.0516 9.18333 35.705 8.34666 35.075 7.71666L32.4316 5.07333C31.1716 3.81333 28.9733 3.81999 27.7233 5.06833L11.6666 20.9717V28.355ZM30.075 7.43L32.7233 10.0683L30.0616 12.705L27.4183 10.0633L30.075 7.43ZM15 22.3617L25.05 12.4067L27.6933 15.05L17.645 25.0017L15 25.01V22.3617Z" fill="black"/>
<path d="M8.33333 35H31.6667C33.505 35 35 33.505 35 31.6667V17.22L31.6667 20.5533V31.6667H13.5967C13.5533 31.6667 13.5083 31.6833 13.465 31.6833C13.41 31.6833 13.355 31.6683 13.2983 31.6667H8.33333V8.33333H19.745L23.0783 5H8.33333C6.495 5 5 6.495 5 8.33333V31.6667C5 33.505 6.495 35 8.33333 35Z" fill="black"/>
</svg>
