<svg width="45" height="45" viewBox="0 0 45 45" fill="none" xmlns="http://www.w3.org/2000/svg">
<path d="M22.5 39.375C18.1875 39.375 14.43 37.9456 11.2275 35.0869C8.025 32.2281 6.18875 28.6575 5.71875 24.375H9.5625C10 27.625 11.4456 30.3125 13.8994 32.4375C16.3531 34.5625 19.22 35.625 22.5 35.625C26.1562 35.625 29.2581 34.3519 31.8056 31.8056C34.3531 29.2594 35.6262 26.1575 35.625 22.5C35.6238 18.8425 34.3506 15.7413 31.8056 13.1962C29.2606 10.6513 26.1588 9.3775 22.5 9.375C20.3438 9.375 18.3281 9.875 16.4531 10.875C14.5781 11.875 13 13.25 11.7188 15H16.875V18.75H5.625V7.5H9.375V11.9062C10.9688 9.90625 12.9144 8.35938 15.2119 7.26562C17.5094 6.17188 19.9388 5.625 22.5 5.625C24.8438 5.625 27.0394 6.07063 29.0869 6.96188C31.1344 7.85313 32.9156 9.05563 34.4306 10.5694C35.9456 12.0831 37.1488 13.8644 38.04 15.9131C38.9313 17.9619 39.3763 20.1575 39.375 22.5C39.3737 24.8425 38.9287 27.0381 38.04 29.0869C37.1513 31.1356 35.9481 32.9169 34.4306 34.4306C32.9131 35.9444 31.1319 37.1475 29.0869 38.04C27.0419 38.9325 24.8463 39.3775 22.5 39.375ZM27.75 30.375L20.625 23.25V13.125H24.375V21.75L30.375 27.75L27.75 30.375Z" fill="black"/>
</svg>
