<svg width="40" height="40" viewBox="0 0 40 40" fill="none" xmlns="http://www.w3.org/2000/svg">
<path d="M5 35.4286H12.5V24C12.5 23.3524 12.74 22.8099 13.22 22.3726C13.7 21.9352 14.2933 21.7158 15 21.7143H25C25.7083 21.7143 26.3025 21.9337 26.7825 22.3726C27.2625 22.8114 27.5017 23.3539 27.5 24V35.4286H35V14.8571L20 4.57143L5 14.8571V35.4286ZM0 35.4286V14.8571C0 14.1333 0.177499 13.4476 0.532499 12.8C0.887499 12.1524 1.37667 11.619 2 11.2L17 0.914286C17.875 0.304762 18.875 0 20 0C21.125 0 22.125 0.304762 23 0.914286L38 11.2C38.625 11.619 39.115 12.1524 39.47 12.8C39.825 13.4476 40.0017 14.1333 40 14.8571V35.4286C40 36.6857 39.51 37.7623 38.53 38.6583C37.55 39.5543 36.3733 40.0015 35 40H25C24.2917 40 23.6983 39.7806 23.22 39.3417C22.7417 38.9029 22.5017 38.3604 22.5 37.7143V26.2857H17.5V37.7143C17.5 38.3619 17.26 38.9051 16.78 39.344C16.3 39.7828 15.7067 40.0015 15 40H5C3.625 40 2.44833 39.5528 1.47 38.6583C0.491666 37.7638 0.00166667 36.6872 0 35.4286Z" fill="black"/>
</svg>
