<svg width="50" height="50" viewBox="0 0 50 50" fill="none" xmlns="http://www.w3.org/2000/svg">
<path d="M12.1875 35.625C13.9583 34.2708 15.9375 33.2035 18.125 32.4229C20.3125 31.6424 22.6041 31.2514 25 31.25C27.3958 31.2486 29.6875 31.6396 31.875 32.4229C34.0625 33.2063 36.0416 34.2736 37.8125 35.625C39.0277 34.2014 39.9743 32.5868 40.652 30.7813C41.3298 28.9757 41.668 27.0486 41.6666 25C41.6666 20.3819 40.0437 16.4493 36.7979 13.2021C33.552 9.95487 29.6194 8.33195 25 8.33334C20.3805 8.33473 16.4479 9.95834 13.202 13.2042C9.95621 16.45 8.33329 20.3819 8.33329 25C8.33329 27.0486 8.67218 28.9757 9.34996 30.7813C10.0277 32.5868 10.9736 34.2014 12.1875 35.625ZM25 27.0833C22.9513 27.0833 21.2236 26.3806 19.8166 24.975C18.4097 23.5694 17.7069 21.8417 17.7083 19.7917C17.7097 17.7417 18.4132 16.0139 19.8187 14.6083C21.2243 13.2028 22.9513 12.5 25 12.5C27.0486 12.5 28.7764 13.2035 30.1833 14.6104C31.5902 16.0174 32.293 17.7444 32.2916 19.7917C32.2902 21.8389 31.5875 23.5667 30.1833 24.975C28.7791 26.3833 27.0513 27.0861 25 27.0833ZM25 45.8333C22.118 45.8333 19.4097 45.2861 16.875 44.1917C14.3402 43.0972 12.1354 41.6132 10.2604 39.7396C8.38538 37.866 6.90135 35.6611 5.8083 33.125C4.71524 30.5889 4.16802 27.8806 4.16663 25C4.16524 22.1194 4.71246 19.4111 5.8083 16.875C6.90413 14.3389 8.38816 12.134 10.2604 10.2604C12.1326 8.38681 14.3375 6.90278 16.875 5.80834C19.4125 4.71389 22.1208 4.16667 25 4.16667C27.8791 4.16667 30.5875 4.71389 33.125 5.80834C35.6625 6.90278 37.8673 8.38681 39.7395 10.2604C41.6118 12.134 43.0965 14.3389 44.1937 16.875C45.2909 19.4111 45.8375 22.1194 45.8333 25C45.8291 27.8806 45.2819 30.5889 44.1916 33.125C43.1013 35.6611 41.6173 37.866 39.7395 39.7396C37.8618 41.6132 35.6569 43.0979 33.125 44.1938C30.593 45.2896 27.8847 45.8361 25 45.8333Z" fill="black"/>
</svg>
